<svg width="38" height="31" viewBox="0 0 38 31" fill="none" xmlns="http://www.w3.org/2000/svg">
<path id="Vector" d="M37.7091 8.91896H6.84594C6.76878 8.91896 6.69477 8.9523 6.64021 9.01165C6.58565 9.07099 6.555 9.15149 6.555 9.23542V13.5302C6.555 13.711 6.68562 13.8531 6.84594 13.8531H37.7091C37.8694 13.8531 38 13.711 38 13.5302V9.23542C38 9.15149 37.9693 9.07099 37.9148 9.01165C37.8602 8.9523 37.7862 8.91896 37.7091 8.91896ZM37.7091 17.1533H6.84594C6.76878 17.1533 6.69477 17.1867 6.64021 17.246C6.58565 17.3054 6.555 17.3859 6.555 17.4698V21.7646C6.555 21.939 6.68562 22.081 6.84594 22.081H37.7091C37.8694 22.081 38 21.939 38 21.7646V17.4698C38 17.3859 37.9693 17.3054 37.9148 17.246C37.8602 17.1867 37.7862 17.1533 37.7091 17.1533ZM37.7091 25.3877H6.84594C6.76878 25.3877 6.69477 25.421 6.64021 25.4804C6.58565 25.5397 6.555 25.6202 6.555 25.7042V29.999C6.555 30.1733 6.68562 30.3154 6.84594 30.3154H37.7091C37.8694 30.3154 38 30.1733 38 29.999V25.7042C38 25.6626 37.9925 25.6215 37.9779 25.5831C37.9632 25.5447 37.9418 25.5098 37.9148 25.4804C37.8878 25.451 37.8557 25.4277 37.8204 25.4118C37.7851 25.3959 37.7473 25.3877 37.7091 25.3877ZM37.7091 0.684584H6.84594C6.76878 0.684584 6.69477 0.717925 6.64021 0.777272C6.58565 0.836619 6.555 0.917112 6.555 1.00104V5.30229C6.555 5.47667 6.68562 5.61875 6.84594 5.61875H37.7091C37.8694 5.61875 38 5.47667 38 5.30229V1.00104C38 0.917112 37.9693 0.836619 37.9148 0.777272C37.8602 0.717925 37.7862 0.684584 37.7091 0.684584ZM2.8975 24.6967C1.30031 24.6967 0 26.111 0 27.8483C0 29.5856 1.30031 31 2.8975 31C4.49469 31 5.795 29.5856 5.795 27.8483C5.795 26.111 4.49469 24.6967 2.8975 24.6967ZM2.8975 0C1.30031 0 0 1.41437 0 3.15167C0 4.88896 1.30031 6.30333 2.8975 6.30333C4.49469 6.30333 5.795 4.88896 5.795 3.15167C5.795 1.41437 4.49469 0 2.8975 0ZM2.8975 16.4623C1.30031 16.4623 0 17.8767 0 19.6204C0 21.3577 1.30031 22.7721 2.8975 22.7721C4.49469 22.7721 5.795 21.3577 5.795 19.6204C5.795 17.8767 4.49469 16.4623 2.8975 16.4623ZM2.8975 8.23438C1.30031 8.23438 0 9.64875 0 11.386C0 13.1233 1.30031 14.5377 2.8975 14.5377C4.49469 14.5377 5.795 13.1233 5.795 11.386C5.795 9.64875 4.49469 8.23438 2.8975 8.23438Z" fill="black"/>
</svg>
